<svg width="128" height="128" viewBox="0 0 128 128" xmlns="http://www.w3.org/2000/svg" role="img" aria-label="B Trust Logo">
  <defs>
    <linearGradient id="g" x1="0" y1="0" x2="1" y2="1">
      <stop offset="0%" stop-color="#2563eb"/>
      <stop offset="50%" stop-color="#ec4899"/>
      <stop offset="100%" stop-color="#f59e0b"/>
    </linearGradient>
  </defs>
  <rect x="8" y="8" width="112" height="112" rx="24" fill="url(#g)"/>
  <g fill="#fff">
    <!-- Stylized B -->
    <path d="M44 36h20c12 0 18 6 18 14c0 6-4 10-9 12c7 2 11 7 11 14c0 10-8 16-20 16H44V36zm12 10v16h8c6 0 10-3 10-8s-4-8-10-8h-8zm0 26v18h10c7 0 12-3 12-9s-5-9-12-9H56z"/>
    <!-- Trust underline -->
    <rect x="36" y="96" width="56" height="4" rx="2" opacity="0.9"/>
  </g>
</svg>
